<svg width="420" height="113" viewBox="0 0 420 113" fill="none" xmlns="http://www.w3.org/2000/svg">
<circle cx="54.5" cy="57.5" r="54.5" fill="#002F5D"/>
<rect x="31" y="25" width="21.8" height="65" rx="10.9" fill="white"/>
<circle cx="68.0934" cy="35.8666" r="10.8666" fill="white"/>
<path d="M143.9 90.9C139.28 90.9 135.2 89.91 131.66 87.93C128.12 85.95 125.36 83.19 123.38 79.65C121.4 76.11 120.41 71.97 120.41 67.23C120.41 62.13 121.4 57.78 123.38 54.18C125.42 50.58 128.03 47.82 131.21 45.9C134.45 43.92 137.87 42.93 141.47 42.93C144.11 42.93 146.66 43.41 149.12 44.37C151.64 45.27 153.86 46.65 155.78 48.51C157.76 50.31 159.32 52.53 160.46 55.17C161.66 57.81 162.32 60.87 162.44 64.35C162.38 65.07 162.08 65.7 161.54 66.24C161 66.72 160.37 66.96 159.65 66.96H123.56L122.48 62.1H157.94L156.77 63.18V61.38C156.53 58.56 155.63 56.16 154.07 54.18C152.51 52.2 150.62 50.7 148.4 49.68C146.18 48.66 143.87 48.15 141.47 48.15C139.67 48.15 137.81 48.51 135.89 49.23C134.03 49.95 132.32 51.09 130.76 52.65C129.26 54.15 128.03 56.1 127.07 58.5C126.11 60.84 125.63 63.63 125.63 66.87C125.63 70.41 126.35 73.62 127.79 76.5C129.23 79.38 131.3 81.66 134 83.34C136.76 85.02 140.03 85.86 143.81 85.86C145.91 85.86 147.8 85.56 149.48 84.96C151.16 84.36 152.63 83.58 153.89 82.62C155.15 81.6 156.2 80.55 157.04 79.47C157.7 78.93 158.36 78.66 159.02 78.66C159.62 78.66 160.13 78.9 160.55 79.38C161.03 79.86 161.27 80.4 161.27 81C161.27 81.72 160.97 82.35 160.37 82.89C158.57 85.05 156.23 86.94 153.35 88.56C150.47 90.12 147.32 90.9 143.9 90.9ZM169.589 82.71C169.109 81.99 168.869 81.3 168.869 80.64C168.929 79.92 169.319 79.35 170.039 78.93C170.519 78.51 171.059 78.33 171.659 78.39C172.319 78.45 172.919 78.75 173.459 79.29C175.079 81.39 177.029 83.1 179.309 84.42C181.649 85.68 184.409 86.31 187.589 86.31C189.269 86.31 190.919 86.04 192.539 85.5C194.219 84.9 195.599 84.03 196.679 82.89C197.759 81.69 198.299 80.19 198.299 78.39C198.299 76.53 197.759 75.03 196.679 73.89C195.599 72.75 194.189 71.85 192.449 71.19C190.769 70.53 188.969 69.96 187.049 69.48C185.009 68.94 183.029 68.34 181.109 67.68C179.189 66.96 177.479 66.09 175.979 65.07C174.539 63.99 173.369 62.7 172.469 61.2C171.569 59.7 171.119 57.87 171.119 55.71C171.119 53.19 171.809 50.97 173.189 49.05C174.569 47.13 176.429 45.63 178.769 44.55C181.169 43.47 183.869 42.93 186.869 42.93C188.369 42.93 189.989 43.14 191.729 43.56C193.469 43.92 195.179 44.55 196.859 45.45C198.539 46.35 200.039 47.58 201.359 49.14C201.899 49.68 202.169 50.31 202.169 51.03C202.169 51.69 201.869 52.29 201.269 52.83C200.789 53.19 200.219 53.37 199.559 53.37C198.959 53.37 198.449 53.13 198.029 52.65C196.589 51.03 194.879 49.8 192.899 48.96C190.919 48.12 188.789 47.7 186.509 47.7C184.769 47.7 183.119 48 181.559 48.6C180.059 49.14 178.799 49.98 177.779 51.12C176.759 52.26 176.249 53.76 176.249 55.62C176.369 57.36 176.969 58.77 178.049 59.85C179.189 60.93 180.659 61.83 182.459 62.55C184.319 63.27 186.389 63.93 188.669 64.53C190.589 65.01 192.419 65.58 194.159 66.24C195.959 66.9 197.519 67.74 198.839 68.76C200.219 69.72 201.299 70.95 202.079 72.45C202.919 73.95 203.339 75.84 203.339 78.12C203.339 80.76 202.589 83.04 201.089 84.96C199.649 86.88 197.699 88.35 195.239 89.37C192.779 90.39 190.049 90.9 187.049 90.9C183.809 90.9 180.659 90.27 177.599 89.01C174.599 87.75 171.929 85.65 169.589 82.71ZM255.426 66.96C255.426 71.52 254.436 75.63 252.456 79.29C250.476 82.89 247.776 85.74 244.356 87.84C240.936 89.88 237.036 90.9 232.656 90.9C228.396 90.9 224.526 89.88 221.046 87.84C217.626 85.74 214.896 82.89 212.856 79.29C210.876 75.63 209.886 71.52 209.886 66.96C209.886 62.34 210.876 58.23 212.856 54.63C214.896 51.03 217.626 48.18 221.046 46.08C224.526 43.98 228.396 42.93 232.656 42.93C237.036 42.93 240.936 43.98 244.356 46.08C247.776 48.18 250.476 51.03 252.456 54.63C254.436 58.23 255.426 62.34 255.426 66.96ZM250.026 66.96C250.026 63.3 249.276 60.06 247.776 57.24C246.276 54.36 244.206 52.11 241.566 50.49C238.986 48.81 236.016 47.97 232.656 47.97C229.416 47.97 226.476 48.81 223.836 50.49C221.196 52.11 219.096 54.36 217.536 57.24C216.036 60.06 215.286 63.3 215.286 66.96C215.286 70.62 216.036 73.86 217.536 76.68C219.096 79.5 221.196 81.75 223.836 83.43C226.476 85.05 229.416 85.86 232.656 85.86C236.016 85.86 238.986 85.05 241.566 83.43C244.206 81.75 246.276 79.5 247.776 76.68C249.276 73.86 250.026 70.62 250.026 66.96ZM271.043 87.3C271.043 88.02 270.773 88.65 270.233 89.19C269.693 89.73 269.063 90 268.343 90C267.563 90 266.903 89.73 266.363 89.19C265.883 88.65 265.643 88.02 265.643 87.3V26.1C265.643 25.38 265.913 24.75 266.453 24.21C266.993 23.67 267.623 23.4 268.343 23.4C269.123 23.4 269.753 23.67 270.233 24.21C270.773 24.75 271.043 25.38 271.043 26.1V87.3ZM289.985 87.3C289.985 88.02 289.715 88.65 289.175 89.19C288.635 89.73 288.005 90 287.285 90C286.505 90 285.845 89.73 285.305 89.19C284.825 88.65 284.585 88.02 284.585 87.3V26.1C284.585 25.38 284.855 24.75 285.395 24.21C285.935 23.67 286.565 23.4 287.285 23.4C288.065 23.4 288.695 23.67 289.175 24.21C289.715 24.75 289.985 25.38 289.985 26.1V87.3ZM322.898 90.9C318.278 90.9 314.198 89.91 310.658 87.93C307.118 85.95 304.358 83.19 302.378 79.65C300.398 76.11 299.408 71.97 299.408 67.23C299.408 62.13 300.398 57.78 302.378 54.18C304.418 50.58 307.028 47.82 310.208 45.9C313.448 43.92 316.868 42.93 320.468 42.93C323.108 42.93 325.658 43.41 328.118 44.37C330.638 45.27 332.858 46.65 334.778 48.51C336.758 50.31 338.318 52.53 339.458 55.17C340.658 57.81 341.318 60.87 341.438 64.35C341.378 65.07 341.078 65.7 340.538 66.24C339.998 66.72 339.368 66.96 338.648 66.96H302.558L301.478 62.1H336.938L335.768 63.18V61.38C335.528 58.56 334.628 56.16 333.068 54.18C331.508 52.2 329.618 50.7 327.398 49.68C325.178 48.66 322.868 48.15 320.468 48.15C318.668 48.15 316.808 48.51 314.888 49.23C313.028 49.95 311.318 51.09 309.758 52.65C308.258 54.15 307.028 56.1 306.068 58.5C305.108 60.84 304.628 63.63 304.628 66.87C304.628 70.41 305.348 73.62 306.788 76.5C308.228 79.38 310.298 81.66 312.998 83.34C315.758 85.02 319.028 85.86 322.808 85.86C324.908 85.86 326.798 85.56 328.478 84.96C330.158 84.36 331.628 83.58 332.888 82.62C334.148 81.6 335.198 80.55 336.038 79.47C336.698 78.93 337.358 78.66 338.018 78.66C338.618 78.66 339.128 78.9 339.548 79.38C340.028 79.86 340.268 80.4 340.268 81C340.268 81.72 339.968 82.35 339.368 82.89C337.568 85.05 335.228 86.94 332.348 88.56C329.468 90.12 326.318 90.9 322.898 90.9ZM371.447 42.93C374.327 42.93 376.967 43.26 379.367 43.92C381.767 44.52 383.687 45.36 385.127 46.44C386.627 47.52 387.377 48.69 387.377 49.95C387.377 50.55 387.167 51.15 386.747 51.75C386.327 52.29 385.757 52.56 385.037 52.56C384.317 52.56 383.717 52.38 383.237 52.02C382.817 51.66 382.367 51.24 381.887 50.76C381.467 50.28 380.837 49.83 379.997 49.41C379.217 49.05 378.107 48.72 376.667 48.42C375.227 48.12 373.577 47.97 371.717 47.97C368.357 47.97 365.327 48.81 362.627 50.49C359.927 52.17 357.797 54.45 356.237 57.33C354.677 60.15 353.897 63.33 353.897 66.87C353.897 70.47 354.647 73.71 356.147 76.59C357.647 79.47 359.717 81.75 362.357 83.43C364.997 85.05 368.087 85.86 371.627 85.86C374.027 85.86 375.887 85.65 377.207 85.23C378.527 84.81 379.667 84.33 380.627 83.79C381.767 83.13 382.577 82.5 383.057 81.9C383.597 81.24 384.287 80.91 385.127 80.91C385.907 80.91 386.477 81.15 386.837 81.63C387.257 82.05 387.467 82.62 387.467 83.34C387.467 84.3 386.747 85.38 385.307 86.58C383.927 87.72 382.007 88.74 379.547 89.64C377.087 90.48 374.267 90.9 371.087 90.9C366.587 90.9 362.627 89.85 359.207 87.75C355.847 85.65 353.207 82.8 351.287 79.2C349.427 75.54 348.497 71.43 348.497 66.87C348.497 62.49 349.457 58.5 351.377 54.9C353.297 51.3 355.967 48.42 359.387 46.26C362.867 44.04 366.887 42.93 371.447 42.93ZM393.009 44.19H413.979C414.699 44.19 415.299 44.46 415.779 45C416.259 45.48 416.499 46.08 416.499 46.8C416.499 47.46 416.259 48.03 415.779 48.51C415.299 48.99 414.699 49.23 413.979 49.23H393.009C392.289 49.23 391.659 48.99 391.119 48.51C390.639 47.97 390.399 47.37 390.399 46.71C390.399 45.99 390.639 45.39 391.119 44.91C391.659 44.43 392.289 44.19 393.009 44.19ZM402.279 31.5C403.059 31.5 403.689 31.77 404.169 32.31C404.709 32.85 404.979 33.48 404.979 34.2V79.38C404.979 81.06 405.189 82.32 405.609 83.16C406.089 84 406.689 84.57 407.409 84.87C408.129 85.11 408.849 85.23 409.569 85.23C410.049 85.23 410.469 85.17 410.829 85.05C411.249 84.87 411.699 84.78 412.179 84.78C412.719 84.78 413.169 84.99 413.529 85.41C413.949 85.83 414.159 86.37 414.159 87.03C414.159 87.87 413.679 88.59 412.719 89.19C411.759 89.73 410.619 90 409.299 90C408.759 90 407.949 89.97 406.869 89.91C405.789 89.79 404.679 89.46 403.539 88.92C402.399 88.32 401.439 87.3 400.659 85.86C399.939 84.42 399.579 82.35 399.579 79.65V34.2C399.579 33.48 399.819 32.85 400.299 32.31C400.839 31.77 401.499 31.5 402.279 31.5Z" fill="#002F5D"/>
</svg>
